<svg xmlns="http://www.w3.org/2000/svg" viewBox="0 0 100 100">
  <!-- Black Background Circle -->
  <circle cx="50" cy="50" r="50" fill="black"/>
  
  <!-- White Fluid Frame (Stylized M shape) -->
  <path d="M 20 30 Q 30 10 50 30 Q 70 10 80 30 Q 90 50 80 80 Q 50 90 20 80 Q 10 50 20 30 Z" 
        fill="none" stroke="white" stroke-width="8" stroke-linecap="round" stroke-linejoin="round"/>
  
  <!-- Icons Group -->
  <g fill="white">
    <!-- Hand Pointer (Left) -->
    <path d="M 32 45 L 32 55 L 35 55 L 35 52 L 38 52 L 38 55 L 41 55 L 41 50 L 38 50 L 38 42 L 35 42 L 35 45 Z" transform="translate(-5, 0) scale(1.2)"/>
    
    <!-- Plus Sign (Right) -->
    <rect x="65" y="45" width="4" height="12" rx="1"/>
    <rect x="61" y="49" width="12" height="4" rx="1"/>
    
    <!-- Mouse Cursor (Bottom/Center) -->
    <path d="M 50 55 L 56 68 L 53 69 L 50 62 L 47 69 L 44 68 Z"/>
  </g>
</svg>